Patient4_TMGait_0pt4_02_right_18_EMG.mot
version=1
nRows=20
nColumns=33
inDegrees=no
endheader
time	1LAddLong	2LGlutMax	3LGlutMed	4LIliopsoas	5LSemiMemb	6LBicFemLong	7LRecFem	8LVastMed	9LVastLat	10LGasMed	11LTibAnt	12lTibPost	13LPeroneusLong	14LSol	15LExtDigLong	16LFlexDigLong	17RAddLong	18RGlutMax	19RGlutMed	20RIliopsoas	21RSemiMemb	22RBicFemLong	23RRecFem	24RVastMed	25RVastLat	26RGasMed	27RTibAnt	28RTibPost	29RPeroneusLong	30RSol	31RExtDigLong	32RFlexDigLong
24.385	-0.001221	0.27679	-0.037689	0.001373	-0.018768	-0.24963	0.011444	-0.004883	0.1239	0.004578	0.002747	0.007629	0.07309	0.054626	0.010681	-0.010986	0.010681	0.00351	0.24643	0.20813	-0.017548	0.224	-0.087433	-0.071259	0.046997	0.003204	-0.09201	-0.020905	-0.001678	-0.045624	-0.001221	-0.004883
24.386	-0.007019	0.24979	-0.021515	-0.001068	-0.041656	-0.1268	0.079651	-0.001373	0.1387	-0.033417	-0.006104	0.020905	0.071106	0.045471	0.015411	-0.014648	0.033569	-0.023041	0.38605	0.004578	-0.1564	0.13672	-0.08316	-0.091553	0.060425	-0.00885	-0.11536	-0.014801	-0.103	0.028992	0.001678	-0.005646
24.387	-0.020905	0.24658	0.016632	-0.003357	-0.044556	-0.14145	0.10635	-0.005341	0.18265	-0.018616	0.00412	-0.00946	0.074463	0.036011	0.007629	-0.018768	0.040131	-0.023804	0.46478	-0.042572	-0.1648	-0.041199	-0.11734	-0.045319	0.060272	-0.005798	-0.062103	0.007629	-0.63232	-0.001678	0.001526	-0.006866
24.388	-0.007782	0.18173	0.005646	0.004425	-0.029602	-0.22736	0.17822	-0.008392	0.30395	-0.03067	0.006561	-0.00412	0.068665	0.035095	0.007477	-0.009155	0.033875	-0.012054	0.31036	0.010223	0.090485	-0.12436	-0.17944	0.002594	0.052032	-0.001373	0.038605	0.010223	-0.63263	-0.062256	0.005798	-0.014496
24.389	-0.006409	0.20325	0.006866	0.012512	0.024872	-0.15595	0.20325	-0.012665	0.19318	-0.013428	-0.00061	0.019379	0.067596	0.019531	0.004272	-0.001831	0.039063	0.019989	0.11429	0.10819	0.39825	-0.16892	-0.14526	0.049896	0.069733	0.002136	0.054474	0.00061	0.57785	-0.11459	-0.002136	-0.022736
24.39	0.000916	0.21088	0.015869	0.009308	0.072174	-0.062561	0.20126	-0.010071	0.034027	0.006409	0.003204	-0.020752	0.048218	0.040894	0.005341	-0.007477	0.013123	0.02594	0.1506	0.12528	0.20096	-0.12146	-0.1619	0.0177	0.064087	0.000153	0.051727	0.00061	0.504	-0.13626	0.003662	-0.015259
24.391	-0.012207	0.1294	0.02655	0.016174	0.018616	0.12024	0.11765	0.013428	-0.08606	-0.000305	0.004578	-0.015106	0.067139	0.026093	0.003662	-0.00885	0.016937	-0.015259	0.21591	0.071716	0.077057	-0.10544	-0.13886	-0.013733	0.067139	0.006714	-0.033417	-0.004883	0.45029	-0.18921	0.00061	-0.012207
24.392	-0.009918	0.17746	0.010376	0.013275	-0.060425	0.19745	0.029602	0.02533	-0.12695	-0.000916	-0.000763	-0.001984	0.053406	0.037079	-0.000916	-0.005493	-0.020905	-0.050812	0.26001	0.019073	-0.35797	0.062866	-0.14252	0.052032	0.047607	-0.004425	-0.012207	-0.002136	0.4393	-0.14648	0.000305	-0.012665
24.393	-0.014038	0.19898	-0.006561	0.016937	-0.024109	0.095825	0.001068	0.031281	-0.092316	0.007172	0.003204	-0.000458	0.053864	0.035553	-0.008698	-0.007477	-0.016937	-0.032196	0.040436	-0.048523	-0.16586	-0.025177	-0.13931	-0.006256	0.050812	0.002289	0.031433	-0.005798	0.37888	-0.14267	0.000305	-0.010681
24.394	-0.011749	0.17654	0.005035	0.009613	0.027466	0.01297	-0.091705	0.016632	0.022278	0.005188	0.015411	0.000458	0.04303	0.03952	0.000763	-0.007782	0.005341	0.011444	0.08194	-0.030975	0.027313	-0.034637	-0.063934	-0.065002	0.035553	0.000458	0.15228	-0.011292	-0.006866	-0.065918	0.001373	-0.005951
24.395	-0.011444	0.1091	0.042267	0.006561	0.029755	-0.038757	-0.037994	0.004578	0.13001	0.007172	0.022736	-0.009308	0.061951	0.043488	0.03952	-0.007477	0.011749	-0.007019	0.23438	-0.032196	-0.053406	0.000916	-0.12054	-0.044403	0.040894	-0.003357	0.27252	-0.006561	-0.44083	-0.034027	0.000916	-0.011444
24.396	-0.016479	0.10117	0.007324	0.007629	0.06424	-0.1001	0.011292	-0.019989	0.18204	0.01358	0.003204	-0.018158	0.052032	0.028992	0.039978	-0.00824	0.04837	-0.072784	0.19455	0.023956	-0.02533	-0.099487	-0.1149	-0.061798	0.045013	-0.001526	-0.18753	-0.003357	-0.014343	0.028534	0.000916	-0.014038
24.397	-0.020599	0.10391	-0.011292	0.004883	0.066223	-0.19348	0.062103	-0.010071	0.16312	0.021057	0.022888	-0.007477	0.042419	0.035858	-0.001831	-0.00351	0.051575	-0.091095	0.10452	0.032501	0.079651	-0.1915	-0.11429	-0.028076	0.041656	0.004578	-0.40741	-0.011139	0.81085	-0.017242	0.00061	-0.005646
24.398	-0.015106	0.11734	-0.029449	-0.001678	0.046082	-0.16205	0.053558	-0.031738	-0.024261	0.023804	0.006561	-0.010071	0.047607	0.036774	-0.024872	-0.006104	0.029297	-0.0914	0.070496	0.005646	0.15564	-0.22553	-0.1001	0.011139	0.063782	0.006714	-0.12436	-0.003967	0.74265	0.000763	-0.004425	-0.00885
24.399	-0.015869	0.13001	0.012054	0.007629	0.055084	-0.087433	0.037079	-0.020599	-0.17792	0.02182	0.024567	-0.00412	0.051117	0.042114	-0.018005	-0.001221	0.028839	-0.084381	0.062408	-0.001221	0.020905	-0.21057	-0.12146	-0.009155	0.063477	0.016785	0.039063	-0.001526	-0.26733	-0.09964	-0.001221	-0.00412
24.4	-0.008698	0.1207	0.041504	0.013885	0.031281	-0.086365	0.037231	-0.015411	-0.19821	0.024567	-0.06485	-0.022125	0.052185	0.042725	-0.015564	0.003357	-0.004578	-0.10086	0.10437	-0.010681	-0.016174	-0.073242	-0.098114	0.028687	0.073547	0.014954	0.005188	-0.006561	-0.51636	-0.12741	0.001831	-0.00061
24.401	0.012665	0.13138	-0.043335	0.016479	-0.031433	0.090027	-0.029449	-0.007782	-0.07782	0.019836	-0.029755	-0.014496	0.039215	0.031586	-0.009308	0.003815	-0.016174	-0.12466	0.10376	-0.016327	-0.00351	0.060425	-0.093994	-0.008545	0.071869	0.011902	-0.10574	-0.007935	-0.81161	-0.04837	0.002899	-0.004425
24.402	0.031433	0.079803	-0.074005	0.000916	-0.041962	0.31937	-0.074005	-0.001221	0.042877	0.023346	-0.020599	0.003815	0.050659	0.030975	-0.004272	-0.003052	-0.017395	-0.14694	0.19852	-0.02243	0.062408	0.16785	-0.10529	-0.015106	0.046692	0.007935	-0.08728	-0.008545	-0.46753	0.046082	0	-0.008392
24.403	0.012207	0.00946	-0.072021	0.007782	-0.0354	0.18249	-0.097656	0.003204	0.071259	0.016937	-0.015259	0.000458	0.046997	0.048218	0.006409	-0.005951	-0.025024	-0.082092	0.15259	-0.1329	0.037079	0.24109	-0.12543	-0.023346	0.062561	0.017548	-0.12726	-0.015106	-0.21423	0.008698	0.000458	-0.002899
24.404	-0.000763	-0.044403	-0.075378	-0.009155	0.00412	0.073242	-0.048676	0.007324	0.05661	0.014801	-0.013275	0.009155	0.039825	0.029602	-0.00061	0.000763	-0.016174	-0.11246	0.14847	-0.26489	-0.074921	0.15533	-0.11444	-0.023041	0.031738	0.018463	-0.09613	-0.015411	-0.13321	-0.001678	0.000153	-0.007324
